<?xml version="1.0" standalone="no"?>
<!DOCTYPE svg PUBLIC "-//W3C//DTD SVG 20010904//EN"
 "http://www.w3.org/TR/2001/REC-SVG-20010904/DTD/svg10.dtd">
<svg version="1.0" xmlns="http://www.w3.org/2000/svg"
 width="308.000000pt" height="308.000000pt" viewBox="0 0 308.000000 308.000000"
 preserveAspectRatio="xMidYMid meet">

<g transform="translate(0.000000,308.000000) scale(0.100000,-0.100000)"
fill="#000000" stroke="none">
<path d="M0 1540 l0 -1540 1540 0 1540 0 0 1540 0 1540 -1540 0 -1540 0 0
-1540z m713 621 c47 -31 153 -83 209 -100 20 -7 81 -18 135 -25 l98 -12 1
-114 c1 -77 -1 -99 -5 -65 -6 45 -8 47 -13 20 -4 -17 -6 2 -6 45 1 41 0 80 -1
86 0 7 -32 14 -73 19 -90 8 -197 43 -296 94 -41 22 -79 38 -84 35 -4 -3 -8
-16 -8 -30 0 -19 12 -31 58 -56 31 -18 73 -39 92 -46 55 -21 213 -62 220 -57
16 10 29 -24 33 -85 3 -44 2 -52 -2 -25 l-7 40 -6 -40 c-4 -27 -4 -22 -2 15 2
30 0 60 -4 66 -4 6 -37 15 -73 21 -70 12 -261 82 -254 94 6 8 -35 20 -47 13
-4 -3 -8 -41 -8 -85 0 -43 -4 -79 -8 -79 -5 0 -8 28 -8 63 1 34 -1 96 -4 137
-5 73 -6 75 -30 72 -14 -2 -54 -15 -90 -29 -245 -93 -288 -122 -397 -262 -11
-14 -12 -13 -5 7 19 56 130 160 212 200 80 38 279 112 303 112 16 0 47 -13 70
-29z m960 -62 c46 -12 53 -28 33 -68 -14 -27 -19 -29 -42 -21 -65 25 -142 2
-169 -50 -45 -88 21 -180 122 -168 21 3 46 8 55 12 12 6 21 0 32 -23 9 -16 16
-35 16 -41 0 -18 -66 -40 -120 -40 -197 0 -293 220 -153 352 56 54 140 71 226
47z m370 -3 c78 -32 120 -101 121 -193 0 -80 -37 -145 -104 -181 -60 -32 -151
-27 -209 11 -98 65 -111 238 -24 318 62 58 145 75 216 45z m397 -16 c122 -62
144 -226 43 -322 -41 -39 -74 -48 -169 -48 l-84 0 0 194 c0 146 3 195 13 199
29 10 162 -5 197 -23z m383 22 c15 -2 18 -9 15 -39 l-3 -38 -67 -3 -68 -3 0
-34 0 -34 63 -3 62 -3 3 -37 3 -37 -63 -3 -63 -3 -3 -37 -3 -37 68 -3 68 -3 3
-37 3 -38 -115 0 -116 0 0 193 c0 107 2 196 4 198 4 4 170 4 209 1z m-2183
-203 c0 -5 -3 -8 -7 -6 -5 3 -90 2 -191 -2 -180 -6 -184 -6 -202 -31 -11 -14
-21 -34 -23 -45 -3 -15 -5 -13 -6 6 -1 19 9 36 34 58 l36 31 179 0 c120 0 180
-4 180 -11z m27 -81 c-2 -13 -4 -3 -4 22 0 25 2 35 4 23 2 -13 2 -33 0 -45z
m-553 17 c-4 -8 -8 -15 -10 -15 -2 0 -4 7 -4 15 0 8 4 15 10 15 5 0 7 -7 4
-15z m273 -61 c-3 -3 -12 -4 -19 -1 -8 3 -5 6 6 6 11 1 17 -2 13 -5z m117 -13
c4 -5 -3 -7 -14 -4 -23 6 -26 13 -6 13 8 0 17 -4 20 -9z m-175 -4 c-2 -1 -13
-9 -24 -17 -19 -14 -19 -14 -6 3 7 9 18 17 24 17 6 0 8 -1 6 -3z m211 -27 c6
-11 8 -20 6 -20 -3 0 -10 9 -16 20 -6 11 -8 20 -6 20 3 0 10 -9 16 -20z m1128
-423 l2 -197 -44 0 -45 0 -3 78 -3 77 -60 0 -60 0 -3 -77 -3 -78 -44 0 -45 0
0 195 0 195 45 0 45 0 0 -75 0 -75 65 0 65 0 0 73 c0 41 2 76 5 79 3 3 22 4
43 3 l37 -1 3 -197z m764 193 c48 -14 52 -21 31 -65 -12 -25 -22 -34 -32 -29
-35 14 -92 16 -121 4 -75 -31 -95 -122 -41 -182 26 -29 35 -33 83 -33 29 0 62
3 74 8 17 6 23 1 37 -29 10 -19 15 -39 12 -44 -8 -14 -74 -30 -121 -30 -81 0
-139 32 -187 103 -26 38 -28 49 -25 108 5 87 36 136 109 173 57 28 117 33 181
16z m171 0 c27 0 37 -8 66 -50 19 -28 35 -50 37 -50 1 0 12 15 23 33 41 63 48
68 96 71 25 1 48 -1 51 -6 3 -4 -20 -44 -50 -87 -31 -44 -56 -84 -56 -90 0
-12 10 -28 92 -139 26 -35 46 -67 44 -71 -2 -3 -29 -4 -59 -3 -54 4 -55 4 -93
63 -22 32 -43 59 -49 59 -5 0 -28 -27 -50 -60 l-40 -60 -59 0 -58 0 24 33 c66
88 118 166 118 177 0 6 -25 48 -55 92 -52 75 -61 106 -28 94 8 -3 29 -6 46 -6z
m-575 -177 c39 -98 74 -186 78 -195 5 -16 0 -18 -42 -18 -47 0 -50 2 -65 39
l-16 38 -72 1 -73 2 -15 -40 c-16 -39 -17 -40 -65 -40 -27 0 -48 3 -46 8 2 4
37 92 78 195 l75 187 45 0 46 0 72 -177z"/>
<path d="M1902 1997 c-46 -49 -47 -134 -1 -183 27 -29 92 -33 126 -9 28 20 47
83 39 128 -15 80 -114 118 -164 64z"/>
<path d="M2320 1905 l0 -115 29 0 c60 0 109 69 96 136 -9 49 -54 94 -94 94
l-31 0 0 -115z"/>
<path d="M1891 1326 c-12 -27 -19 -51 -16 -54 8 -9 65 -9 71 -1 2 4 -4 29 -15
56 l-19 48 -21 -49z"/>
</g>
</svg>
